<?xml version="1.0" encoding="UTF-8" standalone="no"?>
<!-- Created with Inkscape (http://www.inkscape.org/) -->

<svg
   xmlns:dc="http://purl.org/dc/elements/1.1/"
   xmlns:cc="http://creativecommons.org/ns#"
   xmlns:rdf="http://www.w3.org/1999/02/22-rdf-syntax-ns#"
   xmlns:svg="http://www.w3.org/2000/svg"
   xmlns="http://www.w3.org/2000/svg"
   xmlns:sodipodi="http://sodipodi.sourceforge.net/DTD/sodipodi-0.dtd"
   xmlns:inkscape="http://www.inkscape.org/namespaces/inkscape"
   width="320"
   height="480"
   id="svg001001"
   version="1.1"
   inkscape:version="0.48.0 r9654"
   sodipodi:docname="level001015.svg"
   inkscape:output_extension="org.inkscape.output.svg.inkscape"
   style="display:inline"
   game_config="gravity_x=0,gravity_y=0">
  <defs
     id="defs2824">
    <inkscape:perspective
       sodipodi:type="inkscape:persp3d"
       inkscape:vp_x="0 : 300 : 1"
       inkscape:vp_y="0 : 1000 : 0"
       inkscape:vp_z="800 : 300 : 1"
       inkscape:persp3d-origin="400 : 200 : 1"
       id="perspective2826" />
    <inkscape:perspective
       id="perspective3630"
       inkscape:persp3d-origin="0.5 : 0.33333333 : 1"
       inkscape:vp_z="1 : 0.5 : 1"
       inkscape:vp_y="0 : 1000 : 0"
       inkscape:vp_x="0 : 0.5 : 1"
       sodipodi:type="inkscape:persp3d" />
    <inkscape:perspective
       id="perspective3684"
       inkscape:persp3d-origin="0.5 : 0.33333333 : 1"
       inkscape:vp_z="1 : 0.5 : 1"
       inkscape:vp_y="0 : 1000 : 0"
       inkscape:vp_x="0 : 0.5 : 1"
       sodipodi:type="inkscape:persp3d" />
    <inkscape:perspective
       id="perspective4666"
       inkscape:persp3d-origin="0.5 : 0.33333333 : 1"
       inkscape:vp_z="1 : 0.5 : 1"
       inkscape:vp_y="0 : 1000 : 0"
       inkscape:vp_x="0 : 0.5 : 1"
       sodipodi:type="inkscape:persp3d" />
    <inkscape:perspective
       id="perspective4666-9"
       inkscape:persp3d-origin="0.5 : 0.33333333 : 1"
       inkscape:vp_z="1 : 0.5 : 1"
       inkscape:vp_y="0 : 1000 : 0"
       inkscape:vp_x="0 : 0.5 : 1"
       sodipodi:type="inkscape:persp3d" />
    <inkscape:perspective
       id="perspective4782"
       inkscape:persp3d-origin="0.5 : 0.33333333 : 1"
       inkscape:vp_z="1 : 0.5 : 1"
       inkscape:vp_y="0 : 1000 : 0"
       inkscape:vp_x="0 : 0.5 : 1"
       sodipodi:type="inkscape:persp3d" />
    <inkscape:perspective
       id="perspective4782-0"
       inkscape:persp3d-origin="0.5 : 0.33333333 : 1"
       inkscape:vp_z="1 : 0.5 : 1"
       inkscape:vp_y="0 : 1000 : 0"
       inkscape:vp_x="0 : 0.5 : 1"
       sodipodi:type="inkscape:persp3d" />
    <inkscape:perspective
       id="perspective4813"
       inkscape:persp3d-origin="0.5 : 0.33333333 : 1"
       inkscape:vp_z="1 : 0.5 : 1"
       inkscape:vp_y="0 : 1000 : 0"
       inkscape:vp_x="0 : 0.5 : 1"
       sodipodi:type="inkscape:persp3d" />
    <inkscape:perspective
       id="perspective4835"
       inkscape:persp3d-origin="0.5 : 0.33333333 : 1"
       inkscape:vp_z="1 : 0.5 : 1"
       inkscape:vp_y="0 : 1000 : 0"
       inkscape:vp_x="0 : 0.5 : 1"
       sodipodi:type="inkscape:persp3d" />
    <inkscape:perspective
       id="perspective4857"
       inkscape:persp3d-origin="0.5 : 0.33333333 : 1"
       inkscape:vp_z="1 : 0.5 : 1"
       inkscape:vp_y="0 : 1000 : 0"
       inkscape:vp_x="0 : 0.5 : 1"
       sodipodi:type="inkscape:persp3d" />
    <inkscape:perspective
       id="perspective4879"
       inkscape:persp3d-origin="0.5 : 0.33333333 : 1"
       inkscape:vp_z="1 : 0.5 : 1"
       inkscape:vp_y="0 : 1000 : 0"
       inkscape:vp_x="0 : 0.5 : 1"
       sodipodi:type="inkscape:persp3d" />
    <inkscape:perspective
       id="perspective2854"
       inkscape:persp3d-origin="0.5 : 0.33333333 : 1"
       inkscape:vp_z="1 : 0.5 : 1"
       inkscape:vp_y="0 : 1000 : 0"
       inkscape:vp_x="0 : 0.5 : 1"
       sodipodi:type="inkscape:persp3d" />
    <inkscape:perspective
       id="perspective3042"
       inkscape:persp3d-origin="0.5 : 0.33333333 : 1"
       inkscape:vp_z="1 : 0.5 : 1"
       inkscape:vp_y="0 : 1000 : 0"
       inkscape:vp_x="0 : 0.5 : 1"
       sodipodi:type="inkscape:persp3d" />
    <inkscape:perspective
       id="perspective3042-3"
       inkscape:persp3d-origin="0.5 : 0.33333333 : 1"
       inkscape:vp_z="1 : 0.5 : 1"
       inkscape:vp_y="0 : 1000 : 0"
       inkscape:vp_x="0 : 0.5 : 1"
       sodipodi:type="inkscape:persp3d" />
    <inkscape:perspective
       id="perspective3042-0"
       inkscape:persp3d-origin="0.5 : 0.33333333 : 1"
       inkscape:vp_z="1 : 0.5 : 1"
       inkscape:vp_y="0 : 1000 : 0"
       inkscape:vp_x="0 : 0.5 : 1"
       sodipodi:type="inkscape:persp3d" />
    <inkscape:perspective
       id="perspective3042-4"
       inkscape:persp3d-origin="0.5 : 0.33333333 : 1"
       inkscape:vp_z="1 : 0.5 : 1"
       inkscape:vp_y="0 : 1000 : 0"
       inkscape:vp_x="0 : 0.5 : 1"
       sodipodi:type="inkscape:persp3d" />
    <inkscape:perspective
       id="perspective3868"
       inkscape:persp3d-origin="0.5 : 0.33333333 : 1"
       inkscape:vp_z="1 : 0.5 : 1"
       inkscape:vp_y="0 : 1000 : 0"
       inkscape:vp_x="0 : 0.5 : 1"
       sodipodi:type="inkscape:persp3d" />
    <inkscape:perspective
       id="perspective3890"
       inkscape:persp3d-origin="0.5 : 0.33333333 : 1"
       inkscape:vp_z="1 : 0.5 : 1"
       inkscape:vp_y="0 : 1000 : 0"
       inkscape:vp_x="0 : 0.5 : 1"
       sodipodi:type="inkscape:persp3d" />
  </defs>
  <sodipodi:namedview
     id="base"
     pagecolor="#ffffff"
     bordercolor="#666666"
     borderopacity="1.0"
     inkscape:pageopacity="0.0"
     inkscape:pageshadow="2"
     inkscape:zoom="1.3184595"
     inkscape:cx="163.73195"
     inkscape:cy="236.30337"
     inkscape:document-units="px"
     inkscape:current-layer="layer1"
     showgrid="false"
     inkscape:window-width="1109"
     inkscape:window-height="890"
     inkscape:window-x="482"
     inkscape:window-y="53"
     inkscape:window-maximized="0"
     borderlayer="false" />
  <metadata
     id="metadata7">
    <rdf:RDF>
      <cc:Work
         rdf:about="">
        <dc:format>image/svg+xml</dc:format>
        <dc:type
           rdf:resource="http://purl.org/dc/dcmitype/StillImage" />
        <dc:title />
      </cc:Work>
    </rdf:RDF>
  </metadata>
  <g
     inkscape:groupmode="layer"
     id="layer2"
     inkscape:label="dimensions"
     style="display:inline"
     transform="translate(0,160)">
    <rect
       style="fill:#d40000"
       id="rect4013"
       width="320"
       height="440"
       x="0"
       y="-120"
       ry="0.9482758" />
  </g>
  <g
     inkscape:label="physics:static"
     inkscape:groupmode="layer"
     id="layer1"
     style="display:inline"
     transform="translate(0,160)">
    <rect
       game_data="object=platform,objectParams=color:terraCotta"
       y="137.24518"
       x="309.31006"
       height="126.84486"
       width="126.84486"
       id="rect3057"
       style="fill:#0000ff;fill-rule:evenodd;stroke:#000000;stroke-width:1.15513754px;stroke-linecap:butt;stroke-linejoin:miter;stroke-opacity:1"
       transform="matrix(0.65533454,-0.75533876,0.75533876,0.65533454,0,0)" />
    <rect
       transform="matrix(0.65533454,-0.75533876,0.75533876,0.65533454,0,0)"
       style="fill:#0000ff;fill-rule:evenodd;stroke:#000000;stroke-width:1.15513754px;stroke-linecap:butt;stroke-linejoin:miter;stroke-opacity:1"
       id="rect3015"
       width="126.84486"
       height="126.84486"
       x="18.714773"
       y="-209.90948"
       game_data="object=platform,objectParams=color:terraCotta" />
    <path
       sodipodi:type="arc"
       style="fill:#ff0000;fill-opacity:1;stroke:#000000;stroke-width:2;stroke-miterlimit:4;stroke-opacity:1;stroke-dasharray:none;display:inline"
       id="path3035"
       sodipodi:cx="457.5"
       sodipodi:cy="294.5"
       sodipodi:rx="16.5"
       sodipodi:ry="13.5"
       d="M 474,294.5 A 16.5,13.5 0 1 1 441,294.5 A 16.5,13.5 0 1 1 474,294.5 z"
       game_data="object=smallball,objectParams=color:red"
       transform="matrix(1.0224054,0,0,-1.2496065,-300.99047,359.80948)" />
    <path
       sodipodi:type="arc"
       style="fill:#800080;fill-opacity:1;stroke:#000000;stroke-width:2;stroke-miterlimit:4;stroke-opacity:1;stroke-dasharray:none;display:inline"
       id="path3067"
       sodipodi:cx="457.5"
       sodipodi:cy="294.5"
       sodipodi:rx="16.5"
       sodipodi:ry="13.5"
       d="M 474,294.5 A 16.5,13.5 0 1 1 441,294.5 A 16.5,13.5 0 1 1 474,294.5 z"
       game_data="object=smallball,objectParams=color:purple"
       transform="matrix(1.0224054,0,0,-1.2496065,-268.75585,379.52948)" />
    <rect
       game_data="object=platform,objectParams=color:mintGreen"
       ry="0.9482758"
       y="176.64142"
       x="85.120667"
       height="6.826148"
       width="69.778404"
       id="rect3071"
       style="fill:#00ff00"
       transform="matrix(0.36856808,-0.92960076,0.92960076,0.36856808,0,0)" />
    <path
       sodipodi:type="arc"
       style="fill:#ff0000;fill-opacity:1;stroke:#000000;stroke-width:2;stroke-miterlimit:4;stroke-opacity:1;stroke-dasharray:none;display:inline"
       id="path3073"
       sodipodi:cx="457.5"
       sodipodi:cy="294.5"
       sodipodi:rx="16.5"
       sodipodi:ry="13.5"
       d="M 474,294.5 A 16.5,13.5 0 1 1 441,294.5 A 16.5,13.5 0 1 1 474,294.5 z"
       game_data="object=tinyball,objectParams=color:red"
       transform="matrix(0.71000372,0,0,-0.86778232,-119.19671,324.91608)" />
    <path
       transform="matrix(0.71000372,0,0,-0.86778232,-131.33209,299.88686)"
       game_data="object=tinyball,objectParams=color:purple"
       d="M 474,294.5 A 16.5,13.5 0 1 1 441,294.5 A 16.5,13.5 0 1 1 474,294.5 z"
       sodipodi:ry="13.5"
       sodipodi:rx="16.5"
       sodipodi:cy="294.5"
       sodipodi:cx="457.5"
       id="path3075"
       style="fill:#800080;fill-opacity:1;stroke:#000000;stroke-width:2;stroke-miterlimit:4;stroke-opacity:1;stroke-dasharray:none;display:inline"
       sodipodi:type="arc" />
    <rect
       transform="matrix(-0.99848539,0.05501753,-0.07235056,-0.99737926,0,0)"
       style="fill:#00ff00"
       id="rect3019"
       width="47.832714"
       height="6.8252358"
       x="-248.91432"
       y="-1.3013504"
       ry="0.94814903"
       game_data="object=platform,objectParams=color:mintGreen" />
    <rect
       game_data="object=platform,objectParams=color:mintGreen"
       ry="0.94814903"
       y="140.62257"
       x="-138.41646"
       height="6.8252358"
       width="47.832714"
       id="rect3021"
       style="fill:#00ff00"
       transform="matrix(-0.73974449,-0.67288787,0.65993877,-0.75131939,0,0)"
       inkscape:transform-center-x="4.5507655"
       inkscape:transform-center-y="10.618453" />
    <rect
       inkscape:transform-center-y="9.3007139"
       inkscape:transform-center-x="-6.8525673"
       transform="matrix(-0.95481128,0.29721275,-0.31375074,-0.94950538,0,0)"
       style="fill:#00ff00"
       id="rect3023"
       width="47.832714"
       height="6.8252358"
       x="-168.57021"
       y="-8.0854073"
       ry="0.94814903"
       game_data="object=platform,objectParams=color:mintGreen" />
    <rect
       game_data="object=platform,objectParams=color:mintGreen"
       ry="0.94814903"
       y="178.22879"
       x="-211.67305"
       height="6.8252358"
       width="47.832714"
       id="rect3025"
       style="fill:#00ff00"
       transform="matrix(-0.71152661,-0.70265915,0.69019563,-0.72362282,0,0)"
       inkscape:transform-center-x="4.9824137"
       inkscape:transform-center-y="10.422883" />
    <path
       transform="matrix(1.0224054,0,0,-1.2496065,-303.64505,396.97408)"
       game_data="object=smallball,objectParams=color:purple"
       d="M 474,294.5 A 16.5,13.5 0 1 1 441,294.5 A 16.5,13.5 0 1 1 474,294.5 z"
       sodipodi:ry="13.5"
       sodipodi:rx="16.5"
       sodipodi:cy="294.5"
       sodipodi:cx="457.5"
       id="path3029"
       style="fill:#800080;fill-opacity:1;stroke:#000000;stroke-width:2;stroke-miterlimit:4;stroke-opacity:1;stroke-dasharray:none;display:inline"
       sodipodi:type="arc" />
    <path
       sodipodi:type="arc"
       style="fill:#800080;fill-opacity:1;stroke:#000000;stroke-width:2;stroke-miterlimit:4;stroke-opacity:1;stroke-dasharray:none;display:inline"
       id="path3031"
       sodipodi:cx="457.5"
       sodipodi:cy="294.5"
       sodipodi:rx="16.5"
       sodipodi:ry="13.5"
       d="M 474,294.5 A 16.5,13.5 0 1 1 441,294.5 A 16.5,13.5 0 1 1 474,294.5 z"
       game_data="object=tinyball,objectParams=color:purple"
       transform="matrix(0.71000372,0,0,-0.86778232,-94.167505,261.96381)" />
    <path
       transform="matrix(0.71000372,0,0,-0.86778232,-75.205979,283.20071)"
       game_data="object=tinyball,objectParams=color:purple"
       d="M 474,294.5 A 16.5,13.5 0 1 1 441,294.5 A 16.5,13.5 0 1 1 474,294.5 z"
       sodipodi:ry="13.5"
       sodipodi:rx="16.5"
       sodipodi:cy="294.5"
       sodipodi:cx="457.5"
       id="path3033"
       style="fill:#800080;fill-opacity:1;stroke:#000000;stroke-width:2;stroke-miterlimit:4;stroke-opacity:1;stroke-dasharray:none;display:inline"
       sodipodi:type="arc" />
    <path
       sodipodi:type="arc"
       style="fill:#800080;fill-opacity:1;stroke:#000000;stroke-width:2;stroke-miterlimit:4;stroke-opacity:1;stroke-dasharray:none;display:inline"
       id="path3036"
       sodipodi:cx="457.5"
       sodipodi:cy="294.5"
       sodipodi:rx="16.5"
       sodipodi:ry="13.5"
       d="M 474,294.5 A 16.5,13.5 0 1 1 441,294.5 A 16.5,13.5 0 1 1 474,294.5 z"
       game_data="object=tinyball,objectParams=color:purple"
       transform="matrix(0.71000372,0,0,-0.86778232,-103.26903,291.54378)" />
    <path
       transform="matrix(0.71000372,0,0,-0.86778232,-192.00896,242.24382)"
       game_data="object=tinyball,objectParams=color:purple"
       d="M 474,294.5 A 16.5,13.5 0 1 1 441,294.5 A 16.5,13.5 0 1 1 474,294.5 z"
       sodipodi:ry="13.5"
       sodipodi:rx="16.5"
       sodipodi:cy="294.5"
       sodipodi:cx="457.5"
       id="path3038"
       style="fill:#800080;fill-opacity:1;stroke:#000000;stroke-width:2;stroke-miterlimit:4;stroke-opacity:1;stroke-dasharray:none;display:inline"
       sodipodi:type="arc" />
    <path
       sodipodi:type="arc"
       style="fill:#800080;fill-opacity:1;stroke:#000000;stroke-width:2;stroke-miterlimit:4;stroke-opacity:1;stroke-dasharray:none;display:inline"
       id="path3040"
       sodipodi:cx="457.5"
       sodipodi:cy="294.5"
       sodipodi:rx="16.5"
       sodipodi:ry="13.5"
       d="M 474,294.5 A 16.5,13.5 0 1 1 441,294.5 A 16.5,13.5 0 1 1 474,294.5 z"
       game_data="object=tinyball,objectParams=color:purple"
       transform="matrix(0.71000372,0,0,-0.86778232,-192.76742,271.06533)" />
    <path
       sodipodi:type="arc"
       style="fill:#800080;fill-opacity:1;stroke:#000000;stroke-width:2;stroke-miterlimit:4;stroke-opacity:1;stroke-dasharray:none;display:inline"
       id="path3042"
       sodipodi:cx="457.5"
       sodipodi:cy="294.5"
       sodipodi:rx="16.5"
       sodipodi:ry="13.5"
       d="M 474,294.5 A 16.5,13.5 0 1 1 441,294.5 A 16.5,13.5 0 1 1 474,294.5 z"
       game_data="object=smallball,objectParams=color:purple"
       transform="matrix(1.0224054,0,0,-1.2496065,-296.06045,438.68943)" />
    <path
       transform="matrix(0.71000372,0,0,-0.86778232,-210.97048,296.09454)"
       game_data="object=tinyball,objectParams=color:purple"
       d="M 474,294.5 A 16.5,13.5 0 1 1 441,294.5 A 16.5,13.5 0 1 1 474,294.5 z"
       sodipodi:ry="13.5"
       sodipodi:rx="16.5"
       sodipodi:cy="294.5"
       sodipodi:cx="457.5"
       id="path3044"
       style="fill:#800080;fill-opacity:1;stroke:#000000;stroke-width:2;stroke-miterlimit:4;stroke-opacity:1;stroke-dasharray:none;display:inline"
       sodipodi:type="arc" />
    <path
       sodipodi:type="arc"
       style="fill:#800080;fill-opacity:1;stroke:#000000;stroke-width:2;stroke-miterlimit:4;stroke-opacity:1;stroke-dasharray:none;display:inline"
       id="path3046"
       sodipodi:cx="457.5"
       sodipodi:cy="294.5"
       sodipodi:rx="16.5"
       sodipodi:ry="13.5"
       d="M 474,294.5 A 16.5,13.5 0 1 1 441,294.5 A 16.5,13.5 0 1 1 474,294.5 z"
       game_data="object=tinyball,objectParams=color:purple"
       transform="matrix(0.71000372,0,0,-0.86778232,-185.18281,308.22991)" />
    <path
       transform="matrix(0.71000372,0,0,-0.86778232,-205.66125,330.22528)"
       game_data="object=tinyball,objectParams=color:purple"
       d="M 474,294.5 A 16.5,13.5 0 1 1 441,294.5 A 16.5,13.5 0 1 1 474,294.5 z"
       sodipodi:ry="13.5"
       sodipodi:rx="16.5"
       sodipodi:cy="294.5"
       sodipodi:cx="457.5"
       id="path3048"
       style="fill:#800080;fill-opacity:1;stroke:#000000;stroke-width:2;stroke-miterlimit:4;stroke-opacity:1;stroke-dasharray:none;display:inline"
       sodipodi:type="arc" />
    <path
       sodipodi:type="arc"
       style="fill:#800080;fill-opacity:1;stroke:#000000;stroke-width:2;stroke-miterlimit:4;stroke-opacity:1;stroke-dasharray:none;display:inline"
       id="path3050"
       sodipodi:cx="457.5"
       sodipodi:cy="294.5"
       sodipodi:rx="16.5"
       sodipodi:ry="13.5"
       d="M 474,294.5 A 16.5,13.5 0 1 1 441,294.5 A 16.5,13.5 0 1 1 474,294.5 z"
       game_data="object=tinyball,objectParams=color:purple"
       transform="matrix(0.71000372,0,0,-0.86778232,-180.63204,346.15296)" />
    <path
       transform="matrix(0.71000372,0,0,-0.86778232,-154.84437,359.80525)"
       game_data="object=tinyball,objectParams=color:purple"
       d="M 474,294.5 A 16.5,13.5 0 1 1 441,294.5 A 16.5,13.5 0 1 1 474,294.5 z"
       sodipodi:ry="13.5"
       sodipodi:rx="16.5"
       sodipodi:cy="294.5"
       sodipodi:cx="457.5"
       id="path3052"
       style="fill:#800080;fill-opacity:1;stroke:#000000;stroke-width:2;stroke-miterlimit:4;stroke-opacity:1;stroke-dasharray:none;display:inline"
       sodipodi:type="arc" />
    <path
       sodipodi:type="arc"
       style="fill:#800080;fill-opacity:1;stroke:#000000;stroke-width:2;stroke-miterlimit:4;stroke-opacity:1;stroke-dasharray:none;display:inline"
       id="path3054"
       sodipodi:cx="457.5"
       sodipodi:cy="294.5"
       sodipodi:rx="16.5"
       sodipodi:ry="13.5"
       d="M 474,294.5 A 16.5,13.5 0 1 1 441,294.5 A 16.5,13.5 0 1 1 474,294.5 z"
       game_data="object=tinyball,objectParams=color:purple"
       transform="matrix(0.71000372,0,0,-0.86778232,-187.45819,373.45755)" />
    <path
       transform="matrix(0.71000372,0,0,-0.86778232,-212.4874,356.01298)"
       game_data="object=tinyball,objectParams=color:red"
       d="M 474,294.5 A 16.5,13.5 0 1 1 441,294.5 A 16.5,13.5 0 1 1 474,294.5 z"
       sodipodi:ry="13.5"
       sodipodi:rx="16.5"
       sodipodi:cy="294.5"
       sodipodi:cx="457.5"
       id="path3056"
       style="fill:#ff0000;fill-opacity:1;stroke:#000000;stroke-width:2;stroke-miterlimit:4;stroke-opacity:1;stroke-dasharray:none;display:inline"
       sodipodi:type="arc" />
    <path
       sodipodi:type="arc"
       style="fill:#800080;fill-opacity:1;stroke:#000000;stroke-width:2;stroke-miterlimit:4;stroke-opacity:1;stroke-dasharray:none;display:inline"
       id="path3058"
       sodipodi:cx="457.5"
       sodipodi:cy="294.5"
       sodipodi:rx="16.5"
       sodipodi:ry="13.5"
       d="M 474,294.5 A 16.5,13.5 0 1 1 441,294.5 A 16.5,13.5 0 1 1 474,294.5 z"
       game_data="object=tinyball,objectParams=color:purple"
       transform="matrix(0.71000372,0,0,-0.86778232,-158.63668,389.38523)" />
    <path
       transform="matrix(0.71000372,0,0,-0.86778232,-221.58893,263.48072)"
       game_data="object=tinyball,objectParams=color:purple"
       d="M 474,294.5 A 16.5,13.5 0 1 1 441,294.5 A 16.5,13.5 0 1 1 474,294.5 z"
       sodipodi:ry="13.5"
       sodipodi:rx="16.5"
       sodipodi:cy="294.5"
       sodipodi:cx="457.5"
       id="path3060"
       style="fill:#800080;fill-opacity:1;stroke:#000000;stroke-width:2;stroke-miterlimit:4;stroke-opacity:1;stroke-dasharray:none;display:inline"
       sodipodi:type="arc" />
    <path
       sodipodi:type="arc"
       style="fill:#ffff00;fill-opacity:1;stroke:#000000;stroke-width:2;stroke-miterlimit:4;stroke-opacity:1;stroke-dasharray:none;display:inline"
       id="path3062"
       sodipodi:cx="457.5"
       sodipodi:cy="294.5"
       sodipodi:rx="16.5"
       sodipodi:ry="13.5"
       d="M 474,294.5 A 16.5,13.5 0 1 1 441,294.5 A 16.5,13.5 0 1 1 474,294.5 z"
       game_data="object=tinyball,objectParams=color:gold"
       transform="matrix(0.71000372,0,0,-0.86778232,-187.45819,169.43157)" />
  </g>
</svg>
